<?xml version="1.0" encoding="UTF-8"?>
<svg xmlns="http://www.w3.org/2000/svg" xmlns:xlink="http://www.w3.org/1999/xlink" width="16px" height="16px" viewBox="0 0 16 16" version="1.1">
<g id="surface101325">
<path style=" stroke:none;fill-rule:nonzero;fill:rgb(69.019608%,75.686275%,83.137255%);fill-opacity:1;" d="M 1.601562 11.101562 C 1 11.101562 0.5 10.601562 0.5 10 L 0.5 6 C 0.5 5.398438 1 4.898438 1.601562 4.898438 L 3.898438 4.898438 L 3.898438 11.101562 Z M 1.601562 11.101562 "/>
<path style=" stroke:none;fill-rule:nonzero;fill:rgb(40%,47.45098%,56.078431%);fill-opacity:1;" d="M 3.800781 5 L 3.800781 11 L 1.601562 11 C 1.039062 11 0.601562 10.558594 0.601562 10 L 0.601562 6 C 0.601562 5.441406 1.039062 5 1.601562 5 L 3.800781 5 M 4 4.800781 L 1.601562 4.800781 C 0.941406 4.800781 0.398438 5.339844 0.398438 6 L 0.398438 10 C 0.398438 10.660156 0.941406 11.199219 1.601562 11.199219 L 4 11.199219 Z M 4 4.800781 "/>
<path style=" stroke:none;fill-rule:nonzero;fill:rgb(69.019608%,75.686275%,83.137255%);fill-opacity:1;" d="M 3.699219 11.21875 L 3.699219 4.859375 L 8.699219 0.621094 L 8.699219 15.378906 Z M 3.699219 11.21875 "/>
<path style=" stroke:none;fill-rule:nonzero;fill:rgb(40%,47.45098%,56.078431%);fill-opacity:1;" d="M 8.601562 0.839844 L 8.601562 15.179688 L 3.800781 11.179688 L 3.800781 4.898438 L 8.601562 0.839844 M 8.800781 0.398438 L 3.601562 4.820312 L 3.601562 11.261719 L 8.800781 15.601562 Z M 8.800781 0.398438 "/>
<path style=" stroke:none;fill-rule:nonzero;fill:rgb(78.039216%,26.27451%,26.27451%);fill-opacity:1;" d="M 10.453125 10.261719 L 15.25 5.46875 L 15.53125 5.75 L 10.738281 10.546875 Z M 10.453125 10.261719 "/>
<path style=" stroke:none;fill-rule:nonzero;fill:rgb(78.039216%,26.27451%,26.27451%);fill-opacity:1;" d="M 10.453125 5.738281 L 10.738281 5.453125 L 15.53125 10.25 L 15.25 10.53125 Z M 10.453125 5.738281 "/>
</g>
</svg>
