<?xml version="1.0" encoding="UTF-8" standalone="yes"?>
<svg xmlns="http://www.w3.org/2000/svg" xmlns:xlink="http://www.w3.org/1999/xlink" width="50px" height="50px" viewBox="0 0 50 50" version="1.1" fill="#000000">
  <g id="surface127078">
    <path style=" stroke:none;fill-rule:nonzero;fill:#000000;fill-opacity:1;" d="M 24.15625 3 C 23.851562 3 23.550781 3.0625 23.25 3.15625 C 22.644531 3.347656 22.066406 3.707031 21.5625 4.21875 L 9.8125 15.96875 L 3 15.96875 C 1.332031 15.96875 -0.03125 17.332031 -0.03125 19 L -0.03125 31 C -0.03125 32.667969 1.332031 34.03125 3 34.03125 L 9.8125 34.03125 L 21.53125 45.6875 C 22.648438 46.808594 24.082031 47.300781 25.25 46.75 C 26.425781 46.195312 27 44.859375 27 43.3125 L 27 6.3125 C 27 4.8125 26.234375 3.566406 25.0625 3.15625 C 24.769531 3.054688 24.460938 3 24.15625 3 Z M 24.1875 5 C 24.289062 5 24.367188 5.007812 24.4375 5.03125 C 24.722656 5.128906 25 5.382812 25 6.3125 L 25 43.3125 C 25 44.378906 24.648438 44.855469 24.40625 44.96875 C 24.164062 45.082031 23.675781 45.09375 22.90625 44.3125 L 10.3125 31.71875 C 10.292969 31.707031 10.269531 31.695312 10.25 31.6875 C 10.324219 31.753906 10 31.121094 10 30.75 L 10 19.25 C 10 18.878906 10.335938 18.238281 10.25 18.3125 C 10.273438 18.292969 10.292969 18.273438 10.3125 18.25 L 22.96875 5.625 C 23.4375 5.152344 23.878906 5.003906 24.1875 5 Z M 3 18.03125 L 8.1875 18.03125 C 8.058594 18.414062 8 18.832031 8 19.25 L 8 30.75 C 8 31.167969 8.0625 31.582031 8.1875 31.96875 L 3 31.96875 C 2.460938 31.96875 2.03125 31.539062 2.03125 31 L 2.03125 19 C 2.03125 18.460938 2.460938 18.03125 3 18.03125 Z M 31.90625 18.96875 C 31.863281 18.976562 31.820312 18.988281 31.78125 19 C 31.40625 19.066406 31.105469 19.339844 31 19.703125 C 30.894531 20.070312 31.003906 20.460938 31.28125 20.71875 L 35.5625 25 L 31.28125 29.28125 C 30.882812 29.679688 30.882812 30.320312 31.28125 30.71875 C 31.679688 31.117188 32.320312 31.117188 32.71875 30.71875 L 37 26.4375 L 41.28125 30.71875 C 41.679688 31.117188 42.320312 31.117188 42.71875 30.71875 C 43.117188 30.320312 43.117188 29.679688 42.71875 29.28125 L 38.4375 25 L 42.71875 20.71875 C 43.042969 20.417969 43.128906 19.941406 42.933594 19.546875 C 42.742188 19.148438 42.308594 18.929688 41.875 19 C 41.652344 19.023438 41.441406 19.125 41.28125 19.28125 L 37 23.5625 L 32.71875 19.28125 C 32.511719 19.058594 32.210938 18.945312 31.90625 18.96875 Z M 31.90625 18.96875 "/>
  </g>
</svg>
