<?xml version="1.0" encoding="iso-8859-1"?>
<!-- Generator: Adobe Illustrator 22.1.0, SVG Export Plug-In . SVG Version: 6.00 Build 0)  -->
<svg xmlns="http://www.w3.org/2000/svg" xmlns:xlink="http://www.w3.org/1999/xlink" version="1.1" id="Layer_3" x="0px" y="0px" viewBox="0 0 64 64" style="enable-background:new 0 0 64 64;" xml:space="preserve" width="512" height="512">
<g>
	<g>
		<path style="fill:#946C5A;" d="M48,33l13.37-16.236C61.777,16.27,62,15.65,62,15.01V14.76c0-1.525-1.236-2.76-2.76-2.76h0    c-0.788,0-1.539,0.337-2.063,0.926L42,30"/>
	</g>
	<g>
		<polygon style="fill:#D1D8DB;" points="51.455,19.364 56.142,23.113 58.823,19.858 54.26,16.208   "/>
	</g>
	<g>
		<path style="fill:#946C5A;" d="M16,33L2.63,16.764C2.223,16.27,2,15.65,2,15.01V14.76C2,13.236,3.236,12,4.76,12h0    c0.788,0,1.539,0.337,2.063,0.926L22,30"/>
	</g>
	<g>
		<polygon style="fill:#D1D8DB;" points="12.545,19.364 7.858,23.113 5.177,19.858 9.74,16.208   "/>
	</g>
	<g>
		<path style="fill:#946C5A;" d="M48,39v3.858c0,2.652-1.054,5.196-2.929,7.071L45,50H19l-0.071-0.071    C17.054,48.054,16,45.51,16,42.858V39"/>
	</g>
	<g>
		<path style="fill:#67AC5B;" d="M22,30L7,37c-2.761,0-5,2.239-5,5s2.239,5,5,5s5-2.239,5-5l9-2l-1,7l-4,12l0,0c0,1.657,1.343,3,3,3    h6l4-8h6h0l4,8h6c1.657,0,3-1.343,3-3l0,0l-4-12l-1-7c0,0,9,2,9,2c0,2.761,2.239,5,5,5s5-2.239,5-5s-2.239-5-5-5l-15-7"/>
	</g>
	<g>
		<polyline style="fill:#FAE0B8;" points="39,31 43,40 44,47 35,50 29,50 20,47 21,40 25,31   "/>
	</g>
	<g>
		<circle style="fill:#74564A;" cx="32" cy="48" r="2"/>
	</g>
	<g>
		<polygon style="fill:#9037AA;" points="47.313,56.937 37.455,58.909 36,56 45.9,52.7   "/>
	</g>
	<g>
		<polygon style="fill:#9037AA;" points="16.688,56.938 26.545,58.909 28,56 18.1,52.7   "/>
	</g>
	<g>
		<polygon style="fill:#9037AA;" points="52.119,34.722 49.261,41.391 46.036,40.675 46.965,32.317   "/>
	</g>
	<g>
		<polygon style="fill:#9037AA;" points="14.739,41.391 11.881,34.722 17.035,32.317 17.964,40.675   "/>
	</g>
	<g>
		<path style="fill:#97C05C;" d="M50,22c0-2.691-1.924-5.13-5.036-6.927C44.586,6.317,38.936,2,32,2S19.414,6.317,19.036,15.073    C15.924,16.87,14,19.309,14,22c0,4.206,4.68,7.799,11.3,9.276C27.258,32.976,29.545,34,32,34s4.742-1.024,6.7-2.724    C45.32,29.799,50,26.206,50,22z"/>
	</g>
	<g>
		<path style="fill:#9037AA;" d="M47.661,17.097c-0.75-0.736-1.65-1.419-2.698-2.024c-0.063-1.467-0.286-2.798-0.627-4.017L38,10    l-6,2l-6-2l-6.337,1.056c-0.341,1.218-0.564,2.55-0.627,4.017c-1.048,0.605-1.947,1.288-2.698,2.024L23,19l3.229-1.076    C28.064,17.312,29.986,17,31.921,17h0.158c1.935,0,3.857,0.312,5.692,0.924L41,19L47.661,17.097z"/>
	</g>
	<g>
		<path d="M32,35c-2.502,0-4.973-0.968-7.162-2.803C17.638,30.525,13,26.539,13,22c0-2.831,1.795-5.483,5.067-7.513    C18.641,6.273,24.059,1,32,1s13.359,5.273,13.933,13.487C49.205,16.517,51,19.169,51,22c0,4.539-4.638,8.525-11.838,10.197    C36.973,34.032,34.502,35,32,35z M32,3c-7.058,0-11.643,4.643-11.965,12.116c-0.015,0.342-0.203,0.652-0.499,0.823    C16.611,17.628,15,19.781,15,22c0,3.561,4.227,6.896,10.518,8.3c0.162,0.036,0.312,0.112,0.438,0.221    c3.736,3.243,8.354,3.243,12.09,0c0.125-0.109,0.275-0.185,0.438-0.221C44.773,28.896,49,25.561,49,22    c0-2.219-1.611-4.372-4.536-6.062c-0.296-0.171-0.484-0.481-0.499-0.823C43.643,7.643,39.058,3,32,3z"/>
	</g>
	<g>
		<path d="M32,13c-0.106,0-0.214-0.017-0.316-0.051l-5.765-1.921l-5.755,0.959l-0.328-1.973l6-1c0.159-0.026,0.326-0.014,0.48,0.038    L32,10.946l5.684-1.895c0.155-0.052,0.322-0.065,0.48-0.038l6,1l-0.328,1.973l-5.755-0.959l-5.765,1.921    C32.214,12.983,32.106,13,32,13z"/>
	</g>
	<g>
		<path d="M41,20c-0.106,0-0.214-0.017-0.316-0.051l-3.229-1.076C35.718,18.293,33.909,18,32.079,18h-0.158    c-1.83,0-3.639,0.293-5.376,0.873l-3.229,1.076c-0.191,0.063-0.397,0.068-0.591,0.013l-7-2l0.549-1.923l6.703,1.915l2.935-0.979    C27.854,16.328,29.876,16,31.921,16h0.158c2.045,0,4.066,0.328,6.009,0.975l2.935,0.979l6.703-1.915l0.549,1.923l-7,2    C41.185,19.987,41.093,20,41,20z"/>
	</g>
	<g>
		<g>
			<circle cx="25" cy="14" r="2"/>
		</g>
	</g>
	<g>
		<g>
			<circle cx="39" cy="14" r="2"/>
		</g>
	</g>
	<g>
		<path d="M32.155,29h-0.311c-3.367,0-6.628-0.987-9.431-2.855l-1.969-1.313l1.109-1.664l1.969,1.313    C25.996,26.129,28.874,27,31.845,27h0.311c2.971,0,5.849-0.871,8.321-2.519l1.969-1.313l1.109,1.664l-1.969,1.313    C38.783,28.013,35.522,29,32.155,29z"/>
	</g>
	<g>
		<rect x="18.076" y="34.5" transform="matrix(0.4061 -0.9138 0.9138 0.4061 -18.7815 42.0998)" width="9.849" height="2.001"/>
	</g>
	<g>
		<rect x="40" y="30.576" transform="matrix(0.9138 -0.4061 0.4061 0.9138 -10.8842 19.7114)" width="2.001" height="9.849"/>
	</g>
	<g>
		<rect x="31" y="34" width="2" height="12"/>
	</g>
	<g>
		<path d="M32,42h-6c-0.155,0-0.309-0.036-0.447-0.105l-4-2l0.895-1.789L26.236,40H32V42z"/>
	</g>
	<g>
		<path d="M32,51c-1.654,0-3-1.346-3-3s1.346-3,3-3s3,1.346,3,3S33.654,51,32,51z M32,47c-0.552,0-1,0.449-1,1s0.448,1,1,1    s1-0.449,1-1S32.552,47,32,47z"/>
	</g>
	<g>
		<path d="M38,42h-6v-2h5.764l3.789-1.895l0.895,1.789l-4,2C38.309,41.964,38.155,42,38,42z"/>
	</g>
	<g>
		<path d="M45,63h-6c-0.379,0-0.725-0.214-0.895-0.553L34.382,55h-4.764l-3.724,7.447C25.725,62.786,25.379,63,25,63h-6    c-2.206,0-4-1.794-4-4c0-0.107,0.018-0.214,0.052-0.316l4-12l1.896,0.633l-3.943,11.83C17.08,60.181,17.946,61,19,61h5.382    l3.724-7.447C28.275,53.214,28.621,53,29,53h6c0.379,0,0.725,0.214,0.895,0.553L39.618,61H45c1.054,0,1.92-0.819,1.995-1.854    l-3.943-11.83l1.896-0.633l4,12C48.982,58.786,49,58.893,49,59C49,61.206,47.206,63,45,63z"/>
	</g>
	<g>
		<rect x="22.5" y="49.757" transform="matrix(0.3162 -0.9487 0.9487 0.3162 -35.6346 59.5596)" width="2" height="9.487"/>
	</g>
	<g>
		<rect x="21" y="52.901" transform="matrix(0.1961 -0.9806 0.9806 0.1961 -39.1882 68.198)" width="2" height="10.198"/>
	</g>
	<g>
		<rect x="35.757" y="53.5" transform="matrix(0.9486 -0.3164 0.3164 0.9486 -15.1621 15.6126)" width="9.487" height="2"/>
	</g>
	<g>
		<rect x="36.901" y="57" transform="matrix(0.9805 -0.1963 0.1963 0.9805 -10.5684 9.3733)" width="10.198" height="2"/>
	</g>
	<g>
		<rect x="16.5" y="31.972" transform="matrix(0.9939 -0.1104 0.1104 0.9939 -3.9237 2.1558)" width="2" height="9.055"/>
	</g>
	<g>
		<rect x="12.5" y="34.692" transform="matrix(0.9191 -0.3939 0.3939 0.9191 -14.0744 8.4308)" width="2" height="7.616"/>
	</g>
	<g>
		<rect x="41.972" y="35.5" transform="matrix(0.1103 -0.9939 0.9939 0.1103 5.0927 78.6893)" width="9.055" height="2"/>
	</g>
	<g>
		<rect x="46.692" y="37.5" transform="matrix(0.3941 -0.9191 0.9191 0.3941 -4.786 69.7403)" width="7.616" height="2"/>
	</g>
	<g>
		<path d="M35,51h-6c-0.107,0-0.214-0.017-0.316-0.051l-9-3c-0.458-0.153-0.742-0.612-0.674-1.09l0.796-5.568l-6.86,1.524    C12.546,45.739,10.032,48,7,48c-3.309,0-6-2.691-6-6c0-3.231,2.567-5.874,5.769-5.996l14.809-6.911l0.846,1.812l-15,7    C7.29,37.968,7.146,38,7,38c-2.206,0-4,1.794-4,4s1.794,4,4,4s4-1.794,4-4c0-0.469,0.325-0.875,0.783-0.976l9-2    c0.321-0.071,0.654,0.02,0.896,0.242c0.24,0.223,0.356,0.55,0.311,0.875l-0.882,6.174L29.162,49h5.676l8.054-2.685l-0.882-6.174    c-0.046-0.325,0.07-0.652,0.311-0.875c0.242-0.223,0.574-0.314,0.896-0.242l9,2C52.675,41.125,53,41.531,53,42    c0,2.206,1.794,4,4,4s4-1.794,4-4s-1.794-4-4-4c-0.146,0-0.29-0.032-0.423-0.094l-15-7l0.846-1.812l14.809,6.911    C60.433,36.126,63,38.769,63,42c0,3.309-2.691,6-6,6c-3.032,0-5.546-2.261-5.945-5.186l-6.86-1.524l0.796,5.568    c0.068,0.479-0.216,0.938-0.674,1.09l-9,3C35.214,50.983,35.107,51,35,51z"/>
	</g>
	<g>
		<path d="M15.229,33.636L1.858,17.4C1.305,16.729,1,15.879,1,15.01v-0.25C1,12.687,2.688,11,4.761,11    c1.073,0,2.097,0.46,2.81,1.262l7.177,8.074l-1.494,1.329l-7.177-8.074C5.742,13.215,5.263,13,4.761,13C3.79,13,3,13.79,3,14.76    v0.25c0,0.407,0.143,0.805,0.402,1.119l13.369,16.235L15.229,33.636z"/>
	</g>
	<g>
		<rect x="4.298" y="17" transform="matrix(0.7807 -0.6249 0.6249 0.7807 -9.6039 8.6348)" width="6.403" height="2"/>
	</g>
	<g>
		<rect x="7.298" y="20" transform="matrix(0.7807 -0.6249 0.6249 0.7807 -10.8207 11.1676)" width="6.403" height="2"/>
	</g>
	<g>
		<path d="M48.771,33.636l-1.543-1.271l13.37-16.235C60.857,15.814,61,15.417,61,15.01v-0.25C61,13.79,60.21,13,59.239,13    c-0.502,0-0.981,0.215-1.315,0.591l-7.177,8.074l-1.494-1.329l7.177-8.074C57.143,11.46,58.166,11,59.239,11    C61.312,11,63,12.687,63,14.76v0.25c0,0.87-0.305,1.719-0.857,2.391L48.771,33.636z"/>
	</g>
	<g>
		<rect x="55.5" y="14.798" transform="matrix(0.6247 -0.7809 0.7809 0.6247 7.1491 50.8746)" width="2" height="6.403"/>
	</g>
	<g>
		<rect x="52.5" y="17.798" transform="matrix(0.6247 -0.7809 0.7809 0.6247 3.6806 49.6579)" width="2" height="6.403"/>
	</g>
	<g>
		<path d="M18.293,50.707l-0.071-0.071C16.145,48.558,15,45.796,15,42.858V41h2v1.858c0,2.404,0.937,4.664,2.636,6.364l0.071,0.071    L18.293,50.707z"/>
	</g>
	<g>
		<path d="M45.707,50.707l-1.414-1.414l0.071-0.071c1.699-1.7,2.636-3.96,2.636-6.364V41h2v1.858c0,2.938-1.145,5.7-3.222,7.778    L45.707,50.707z"/>
	</g>
</g>
</svg>
